<?xml version="1.0" standalone="no"?>
<!DOCTYPE svg PUBLIC "-//W3C//DTD SVG 20010904//EN"
 "http://www.w3.org/TR/2001/REC-SVG-20010904/DTD/svg10.dtd">
<svg version="1.0" xmlns="http://www.w3.org/2000/svg"
 width="192.000000pt" height="192.000000pt" viewBox="0 0 192.000000 192.000000"
 preserveAspectRatio="xMidYMid meet">
<metadata>
Created by potrace 1.14, written by Peter Selinger 2001-2017
</metadata>
<g transform="translate(0.000000,192.000000) scale(0.100000,-0.100000)"
fill="#000000" stroke="none">
<path d="M688 1319 l-3 -202 -48 86 c-45 80 -48 89 -45 149 l3 63 33 3 c31 3
32 5 32 48 l0 44 -120 0 -120 0 0 -45 c0 -45 0 -45 34 -45 19 0 37 -4 41 -10
9 -15 -14 -177 -32 -221 -8 -22 -24 -44 -34 -50 -15 -7 -19 -21 -19 -59 0 -28
2 -50 5 -50 2 0 22 7 43 15 37 15 71 50 85 88 9 25 23 14 52 -44 l25 -49 30
15 c38 20 40 19 40 -10 0 -23 4 -25 45 -25 l44 0 3 108 c3 99 4 107 23 107 19
0 20 -8 23 -112 l3 -113 44 0 45 0 0 255 0 255 -45 0 -45 0 0 -96 c0 -93 -1
-95 -22 -92 -22 3 -23 8 -26 96 l-3 92 -44 0 -45 0 -2 -201z"/>
<path d="M1000 1375 l0 -145 148 1 c188 1 196 3 200 54 l3 40 -126 -4 -125 -3
0 101 0 101 -50 0 -50 0 0 -145z"/>
<path d="M1370 1330 l0 -190 50 0 50 0 0 95 0 95 30 0 c29 0 30 1 30 50 0 49
-1 50 -30 50 -29 0 -30 2 -30 45 l0 45 -50 0 -50 0 0 -190z"/>
<path d="M1020 1100 l0 -90 230 0 230 0 0 45 0 45 -180 0 -180 0 0 45 0 45
-50 0 -50 0 0 -90z"/>
<path d="M810 839 c0 -38 -1 -40 -27 -37 -23 2 -29 8 -31 36 l-3 32 -160 0
-159 0 0 -40 0 -40 55 0 c30 0 55 -4 55 -9 0 -20 -53 -71 -85 -83 -33 -11 -35
-15 -35 -55 0 -30 4 -43 14 -43 27 0 100 31 133 56 l33 25 59 -35 c32 -20 61
-36 64 -36 5 0 47 63 47 71 0 2 -29 20 -65 39 -83 45 -88 70 -15 70 l50 0 0
-40 c0 -39 1 -40 35 -40 l35 0 0 -60 0 -60 50 0 50 0 0 145 0 145 -50 0 -50 0
0 -41z"/>
<path d="M1020 715 l0 -155 90 0 90 0 0 -40 0 -40 -105 0 -105 0 0 -45 0 -45
260 0 260 0 0 45 0 45 -105 0 -105 0 0 40 0 40 90 0 90 0 0 155 0 155 -50 0
-50 0 0 -35 0 -35 -130 0 -130 0 0 35 0 35 -50 0 -50 0 0 -155z m360 -35 l0
-30 -130 0 -130 0 0 30 0 30 130 0 130 0 0 -30z"/>
<path d="M595 580 c-100 -16 -145 -48 -145 -103 0 -78 70 -112 230 -112 160 0
230 34 230 113 0 41 -34 77 -86 91 -58 15 -172 21 -229 11z m188 -86 c10 -3
17 -13 15 -22 -7 -36 -221 -41 -235 -6 -3 8 -3 18 1 21 19 19 161 23 219 7z"/>
</g>
</svg>
